<?xml version="1.0" standalone="no"?>
<!DOCTYPE svg PUBLIC "-//W3C//DTD SVG 20010904//EN"
 "http://www.w3.org/TR/2001/REC-SVG-20010904/DTD/svg10.dtd">
<svg version="1.0" xmlns="http://www.w3.org/2000/svg"
 width="1170.000000pt" height="1170.000000pt" viewBox="0 0 1170.000000 1170.000000"
 preserveAspectRatio="xMidYMid meet">
<metadata>
Created by potrace 1.11, written by Peter Selinger 2001-2013
</metadata>
<g transform="translate(0.000000,1170.000000) scale(0.100000,-0.100000)"
fill="#000000" stroke="none">
<path d="M5010 11685 c-7 -8 -21 -15 -32 -15 -10 0 -16 -4 -13 -10 3 -5 1 -10
-6 -10 -18 0 -101 -42 -132 -67 -16 -13 -37 -23 -48 -23 -10 0 -19 -5 -19 -10
0 -6 -6 -10 -12 -9 -34 4 -68 -2 -82 -16 -8 -8 -18 -15 -23 -15 -5 0 -31 -19
-58 -41 -49 -40 -50 -43 -51 -98 -2 -62 -26 -121 -50 -121 -8 0 -17 -7 -20
-15 -4 -8 -12 -15 -18 -15 -7 0 -28 -18 -47 -40 -19 -22 -37 -40 -41 -40 -17
0 -85 -78 -98 -110 -8 -19 -18 -38 -24 -42 -12 -8 -37 -89 -30 -100 3 -4 -2
-8 -10 -8 -9 0 -13 -7 -11 -18 2 -11 -9 -30 -26 -46 -16 -15 -27 -32 -23 -37
3 -5 1 -9 -4 -9 -6 0 -13 -12 -17 -27 -3 -16 -12 -35 -20 -43 -7 -8 -15 -28
-18 -45 -3 -16 -12 -55 -21 -85 -9 -30 -16 -71 -16 -91 0 -35 -20 -66 -33 -53
-3 4 -9 -7 -13 -22 -4 -16 -14 -37 -22 -47 -14 -16 -22 -47 -38 -158 -4 -25
-1 -39 11 -49 15 -12 18 -12 27 4 9 16 11 16 29 -5 23 -26 27 -94 5 -86 -11 4
-15 -12 -21 -71 -4 -42 -13 -90 -20 -107 -7 -16 -16 -51 -19 -77 -3 -27 -8
-58 -11 -71 -8 -30 31 -79 45 -57 6 8 10 12 10 7 0 -4 -5 -16 -12 -27 -13 -20
-11 -38 27 -230 28 -142 61 -238 92 -272 19 -21 44 -88 48 -129 1 -8 7 -37 13
-65 6 -27 16 -78 23 -114 12 -75 38 -158 50 -166 5 -3 9 -14 9 -24 0 -10 6
-23 13 -27 6 -4 12 -15 12 -23 0 -9 7 -14 18 -12 12 2 17 -4 17 -18 0 -13 4
-18 11 -14 6 3 9 19 7 35 -3 20 0 29 9 29 8 0 12 -4 8 -9 -3 -6 2 -14 12 -20
10 -5 29 -30 43 -55 13 -25 31 -48 38 -51 19 -7 43 25 36 47 -19 63 -21 351
-4 538 6 58 10 144 10 191 0 131 9 179 32 179 12 0 17 4 12 12 -5 8 -2 9 10 5
10 -4 19 -1 23 9 4 12 8 13 14 3 6 -10 13 -9 29 6 27 24 23 24 51 0 12 -11 19
-14 15 -7 -5 8 -1 12 11 13 10 0 26 2 36 4 9 2 17 0 17 -4 0 -4 20 -7 45 -6
27 1 50 -3 56 -12 6 -7 17 -13 24 -13 7 0 15 -14 17 -31 5 -33 -12 -49 -55
-49 -13 0 -36 -9 -51 -21 -14 -11 -30 -17 -36 -14 -6 3 -13 -1 -16 -9 -3 -9
-9 -14 -13 -11 -4 2 -15 -12 -24 -31 -10 -19 -21 -33 -25 -30 -4 2 -7 -27 -6
-66 0 -62 3 -72 24 -88 36 -27 124 -38 200 -24 74 13 76 14 72 33 -2 8 1 10
10 5 7 -5 15 -9 18 -10 3 0 18 -4 33 -9 29 -8 142 10 163 26 5 5 55 9 110 10
176 3 177 3 213 29 18 14 37 24 42 22 5 -1 9 9 9 22 0 13 3 31 6 40 4 11 0 16
-12 16 -13 0 -15 3 -7 8 13 8 10 142 -4 164 -7 13 -9 18 -11 51 -1 9 -10 17
-20 17 -10 0 -28 9 -39 19 -21 20 -92 55 -105 53 -3 -1 -12 5 -18 13 -7 8 -19
15 -26 15 -8 0 -14 4 -14 8 0 12 -99 36 -132 33 -16 -1 -28 2 -28 7 0 10 -30
10 -47 -1 -6 -4 -13 -2 -15 3 -2 6 -43 13 -93 16 -49 3 -92 6 -95 7 -3 0 -24
-5 -47 -12 -25 -9 -52 -11 -70 -6 -41 12 -85 6 -113 -14 -25 -18 -65 -35 -85
-36 -5 0 -15 -11 -22 -25 -10 -19 -13 -21 -13 -7 0 10 -4 16 -9 13 -5 -3 -12
2 -16 12 -11 26 -14 81 -5 87 5 3 8 62 9 133 0 185 31 301 94 353 21 17 37 39
37 49 0 35 86 99 137 103 7 0 11 3 11 6 -1 3 4 17 9 32 6 14 9 37 6 51 -6 34
35 78 72 78 14 0 24 -4 21 -9 -3 -4 11 0 32 10 20 10 55 20 76 24 22 3 42 7
44 10 3 2 17 -2 33 -10 15 -8 35 -15 44 -15 14 0 38 -10 146 -58 33 -15 59
-49 59 -79 0 -7 15 -27 32 -45 18 -18 32 -36 31 -39 -2 -7 54 -33 59 -28 2 2
14 -4 28 -14 26 -18 45 -23 36 -9 -3 5 2 9 10 9 10 0 11 -4 4 -11 -17 -17 -11
-26 18 -26 15 0 22 4 16 8 -6 4 -10 17 -9 30 1 13 -3 26 -8 29 -6 4 -7 1 -2
-8 5 -8 4 -11 0 -6 -22 19 -14 44 19 55 44 16 46 16 46 -10 0 -17 3 -19 9 -10
10 17 20 -5 22 -46 l1 -27 8 25 c4 14 8 20 9 14 2 -21 36 -51 73 -63 35 -12
198 -158 198 -178 0 -4 8 -13 19 -20 10 -6 28 -31 40 -55 11 -24 21 -40 21
-35 0 4 13 1 30 -8 16 -8 33 -15 36 -14 4 0 11 -6 16 -15 5 -9 16 -16 24 -16
8 0 13 -4 10 -9 -4 -5 0 -12 6 -14 8 -3 6 -6 -5 -6 -10 -1 -15 -6 -12 -11 4
-6 11 -8 16 -5 5 4 4 -6 -1 -21 -6 -15 -8 -39 -5 -54 4 -18 0 -33 -14 -49 -11
-13 -21 -26 -23 -29 -2 -4 -23 -23 -48 -42 -25 -19 -48 -39 -52 -44 -4 -6 -13
-4 -24 5 -11 9 -15 9 -10 2 4 -7 3 -13 -2 -13 -12 0 -20 -31 -36 -145 -11 -76
-11 -94 0 -117 8 -15 13 -31 12 -35 -2 -4 0 -8 4 -8 4 0 15 -10 23 -22 9 -13
23 -23 31 -23 9 0 22 -6 29 -12 8 -7 21 -19 29 -25 32 -27 252 -36 270 -11 17
23 46 30 53 12 6 -16 65 -44 94 -44 11 0 19 -6 19 -13 0 -10 15 -13 56 -11 60
3 109 -10 99 -26 -3 -6 1 -7 9 -4 9 3 16 1 16 -6 0 -6 4 -9 9 -6 5 3 12 -1 15
-10 9 -23 8 -26 -6 -18 -7 4 -9 3 -5 -1 12 -13 57 -17 57 -5 0 5 9 10 20 10
10 0 24 9 30 20 6 11 17 20 25 20 8 0 24 9 35 20 11 11 33 20 50 20 59 0 89
27 81 73 -1 5 3 6 9 2 5 -3 13 1 16 9 3 9 14 16 23 16 14 0 14 2 1 10 -13 9
-13 10 0 10 12 0 12 2 2 9 -10 6 -9 10 7 14 12 3 19 1 16 -3 -5 -9 1 -16 40
-46 11 -9 13 -12 5 -8 -13 6 -13 5 0 -12 29 -35 62 -105 57 -118 -3 -7 3 -32
14 -55 17 -39 27 -89 32 -171 2 -19 6 -40 10 -46 3 -6 4 -14 1 -17 -4 -3 -7
-27 -9 -54 -1 -26 -7 -59 -13 -73 -12 -32 -13 -42 -1 -57 7 -7 6 -14 -1 -18
-5 -3 -10 -16 -10 -29 0 -12 -3 -26 -7 -30 -4 -4 -8 -17 -8 -29 0 -12 -6 -21
-12 -20 -7 2 -13 -2 -13 -7 0 -6 -6 -10 -14 -10 -8 0 -18 -5 -22 -12 -5 -7 -3
-8 7 -3 8 5 7 0 -4 -12 -9 -11 -14 -23 -10 -26 3 -4 1 -7 -5 -7 -6 0 -9 -6 -7
-12 11 -31 13 -68 4 -62 -6 3 -8 -4 -5 -19 3 -16 -1 -24 -10 -24 -9 0 -11 4
-4 12 5 7 7 15 3 18 -3 4 0 13 6 21 9 11 9 16 0 22 -8 4 -9 3 -5 -4 4 -7 2
-12 -4 -12 -6 0 -10 -8 -9 -17 1 -10 0 -22 -1 -28 -1 -5 -1 -25 0 -44 1 -19
-2 -31 -8 -27 -13 8 -10 -27 3 -36 6 -5 4 -8 -5 -8 -13 0 -13 -1 0 -10 8 -5
10 -10 4 -10 -6 0 -11 -7 -11 -15 0 -13 3 -13 18 1 16 14 17 14 15 -3 -3 -20
-23 -24 -46 -9 -8 6 -12 6 -8 2 4 -5 3 -15 -3 -23 -6 -7 -8 -13 -4 -13 4 0 1
-8 -6 -17 -10 -11 -10 -14 -1 -9 6 4 12 2 12 -4 0 -14 74 -7 94 9 9 8 16 9 16
3 0 -6 -6 -13 -12 -15 -10 -4 -10 -6 0 -6 14 -1 18 7 27 63 5 29 9 36 16 25 7
-11 9 -11 9 4 0 9 -5 17 -12 17 -9 0 -9 3 -1 11 8 8 17 7 34 -5 13 -9 34 -16
48 -16 23 0 23 1 8 18 -18 20 -23 92 -7 92 17 0 69 63 80 98 7 17 15 32 20 32
4 0 10 12 13 28 4 20 18 33 56 51 53 25 98 73 111 119 4 15 12 26 19 24 7 -1
9 6 6 21 -4 14 1 29 13 43 32 34 62 226 62 397 0 128 3 151 20 182 12 21 22
60 23 93 2 31 9 67 15 78 6 12 9 24 7 26 -3 3 1 22 8 44 8 21 17 77 21 124 11
148 18 205 26 215 14 19 39 106 34 119 -3 7 2 21 11 29 14 15 14 21 -1 68 -15
44 -22 150 -15 209 6 46 -60 274 -94 327 -8 12 -18 41 -21 64 -4 24 -13 54
-21 68 -7 14 -13 34 -13 44 0 11 -9 31 -21 45 -100 130 -161 225 -164 257 -1
15 -46 106 -69 140 -12 17 -42 52 -68 78 -26 27 -48 52 -50 55 -2 4 -28 27
-58 52 -30 25 -68 56 -83 70 -16 14 -32 25 -35 25 -11 0 -87 48 -90 57 -2 4
-12 8 -23 8 -10 0 -19 4 -19 8 0 5 -17 18 -38 30 -38 21 -82 62 -67 62 4 0 2
7 -5 15 -11 13 -123 15 -900 15 -777 0 -889 -2 -900 -15z m-55 -2335 c-2 -4 8
-5 23 -4 15 2 21 1 15 -2 -7 -3 -13 -13 -13 -22 0 -14 -2 -14 -9 -3 -5 8 -16
11 -24 8 -13 -5 -50 26 -41 36 7 7 54 -5 49 -13z m2072 -1236 c-3 -3 -12 -4
-19 -1 -8 3 -5 6 6 6 11 1 17 -2 13 -5z m-2 -24 c3 -6 -1 -7 -9 -4 -18 7 -21
14 -7 14 6 0 13 -4 16 -10z"/>
<path d="M4915 10460 c3 -5 8 -10 11 -10 2 0 4 5 4 10 0 6 -5 10 -11 10 -5 0
-7 -4 -4 -10z"/>
<path d="M5461 10233 c7 -12 15 -20 18 -17 3 2 -3 12 -13 22 -17 16 -18 16 -5
-5z"/>
<path d="M5833 8359 c-51 -24 -91 -38 -105 -35 -74 16 -114 28 -125 38 -7 6
-13 7 -13 3 0 -4 -7 -2 -15 5 -8 6 -20 8 -27 4 -7 -4 -33 -8 -58 -9 -25 0 -70
-5 -101 -9 l-57 -8 4 -70 c2 -39 8 -76 14 -83 6 -7 27 -16 48 -20 20 -4 39
-10 42 -13 3 -4 27 -18 53 -32 27 -14 57 -33 67 -42 11 -10 26 -18 35 -18 8 0
32 -11 53 -24 57 -38 102 -38 156 -1 21 14 69 38 108 53 47 18 74 35 81 49 8
18 13 20 24 11 10 -8 17 -8 21 -1 4 5 39 18 79 27 40 10 72 21 71 24 -1 4 4
19 12 34 8 17 10 42 6 71 -8 54 -37 72 -114 69 -30 -1 -72 2 -95 8 -25 5 -47
5 -58 -1 -10 -5 -19 -5 -21 0 -2 5 -40 -8 -85 -30z"/>
<path d="M6961 8321 c-9 -17 -8 -18 11 -13 13 3 17 7 10 10 -7 2 -10 8 -6 13
3 5 3 9 0 9 -3 0 -10 -9 -15 -19z"/>
<path d="M6926 8279 c3 -5 0 -9 -7 -9 -7 0 -9 -3 -6 -6 4 -4 13 -2 20 4 8 7
16 11 18 9 2 -1 3 0 1 2 -1 3 -9 6 -17 7 -8 1 -13 -2 -9 -7z"/>
<path d="M6939 8213 c-13 -16 -12 -17 4 -4 9 7 17 15 17 17 0 8 -8 3 -21 -13z"/>
<path d="M4488 8093 c6 -2 18 -2 25 0 6 3 1 5 -13 5 -14 0 -19 -2 -12 -5z"/>
<path d="M6849 8083 c-13 -16 -12 -17 4 -4 9 7 17 15 17 17 0 8 -8 3 -21 -13z"/>
<path d="M7024 8046 c1 -8 5 -18 8 -22 4 -3 5 1 4 10 -1 8 -5 18 -8 22 -4 3
-5 -1 -4 -10z"/>
<path d="M7089 8055 c-1 -3 -2 -11 -3 -17 -1 -7 -8 -12 -16 -10 -10 2 -11 0
-2 -11 10 -11 9 -17 -1 -26 -8 -6 -18 -7 -23 -3 -4 4 -3 -1 5 -10 17 -23 42
-12 37 17 -2 13 -2 26 2 29 7 8 12 36 6 36 -2 0 -5 -2 -5 -5z"/>
<path d="M5600 7950 c-8 -4 -42 -7 -74 -7 -39 0 -63 -5 -70 -14 -6 -8 -20 -15
-31 -17 -19 -3 -34 -8 -85 -30 -43 -19 -75 -15 -130 16 -17 10 -105 -24 -133
-52 -16 -15 -21 -16 -28 -5 -6 10 -9 6 -9 -13 0 -16 -4 -28 -9 -28 -5 0 -9
-32 -9 -70 -1 -49 2 -68 10 -64 6 4 8 3 5 -3 -4 -6 -3 -24 2 -40 5 -17 5 -36
0 -44 -6 -10 -9 -11 -9 -1 0 6 -7 12 -15 12 -8 0 -15 -7 -15 -16 0 -8 -4 -12
-10 -9 -5 3 -10 1 -10 -6 0 -9 -3 -9 -14 0 -11 9 -13 4 -12 -33 0 -24 4 -42 9
-39 4 2 7 -3 7 -12 0 -10 -5 -13 -12 -9 -9 5 -9 3 1 -9 11 -14 11 -18 -3 -23
-9 -3 -23 -3 -32 0 -12 5 -15 2 -10 -9 3 -9 2 -13 -4 -10 -6 3 -10 21 -10 39
0 19 -6 39 -13 45 -11 9 -14 4 -12 -27 1 -21 -2 -47 -6 -57 -7 -17 -8 -18 -8
-2 -1 9 -5 17 -9 17 -12 0 -8 -38 6 -52 7 -7 12 -25 12 -40 0 -15 4 -28 10
-28 5 0 7 8 4 18 -5 14 -4 15 5 2 6 -8 11 -27 11 -42 0 -16 5 -28 10 -28 6 0
10 -7 10 -15 0 -8 6 -15 14 -15 18 0 27 -36 17 -64 -5 -11 -23 -45 -40 -74
-17 -29 -31 -59 -31 -65 0 -7 -18 -31 -41 -52 -62 -60 -178 -200 -243 -292
-31 -46 -61 -83 -66 -83 -4 0 -18 -11 -31 -25 -13 -13 -28 -25 -33 -25 -5 0
-17 -6 -25 -14 -9 -7 -43 -21 -76 -31 -92 -26 -223 -75 -295 -109 -36 -17 -85
-38 -110 -45 -25 -7 -56 -17 -70 -21 -14 -5 -50 -16 -80 -25 -30 -9 -109 -41
-175 -70 -66 -29 -156 -61 -200 -70 -44 -9 -102 -24 -130 -32 -69 -21 -287
-126 -304 -146 -7 -10 -17 -17 -22 -17 -5 0 -18 -8 -30 -17 -12 -10 -36 -29
-53 -43 -17 -14 -64 -50 -103 -80 -40 -30 -73 -59 -73 -66 0 -7 -3 -14 -7 -16
-16 -7 -101 -125 -129 -178 -16 -30 -34 -59 -41 -65 -38 -33 -128 -158 -163
-228 -23 -45 -57 -101 -75 -125 -18 -23 -43 -68 -55 -100 -30 -79 -50 -115
-85 -154 -17 -18 -42 -49 -56 -68 -32 -42 -89 -199 -89 -242 0 -18 -13 -52
-30 -77 -42 -66 -56 -106 -69 -189 -7 -44 -23 -93 -40 -125 -16 -29 -38 -92
-51 -140 -20 -82 -45 -140 -76 -178 -22 -25 -72 -154 -84 -216 -6 -32 -13 -67
-15 -78 -2 -11 -13 -30 -25 -42 -46 -50 -100 -212 -100 -301 0 -28 -4 -52 -8
-54 -8 -3 -102 -136 -102 -144 0 -2 -15 -26 -33 -52 -19 -26 -37 -60 -41 -77
-4 -16 -26 -46 -49 -65 -80 -69 -145 -141 -167 -186 -32 -69 -150 -392 -150
-412 0 -9 -25 -55 -55 -102 -30 -47 -65 -105 -79 -130 -59 -113 -142 -248
-173 -283 -18 -20 -33 -35 -33 -32 0 12 -73 -77 -95 -117 -55 -97 -61 -115
-82 -238 -20 -118 -44 -247 -76 -400 -13 -63 -12 -113 8 -370 3 -41 8 -113 11
-160 8 -110 26 -202 66 -323 l32 -97 4501 0 4502 0 22 108 c12 59 34 172 48
252 15 80 33 149 40 153 7 4 13 14 13 21 0 7 10 25 21 40 37 47 77 166 104
306 15 83 21 167 35 510 6 129 13 273 16 320 2 47 8 162 13 257 4 94 12 178
18 185 20 25 28 156 28 464 0 242 3 315 13 327 9 11 16 74 22 204 8 198 8 197
48 283 21 46 25 70 25 140 -1 47 -8 110 -16 140 -11 38 -18 124 -22 285 -13
484 -25 609 -80 800 -10 33 -20 109 -22 170 -4 92 -10 127 -40 215 -19 58 -38
107 -42 110 -3 3 -31 35 -63 71 -42 49 -74 74 -125 99 -37 19 -77 45 -88 58
-26 32 -78 64 -140 87 -27 10 -90 47 -138 82 -48 35 -90 63 -92 63 -3 0 -36
20 -75 45 -39 25 -72 45 -73 45 -2 0 -54 34 -117 75 -63 41 -118 75 -122 75
-5 0 -39 20 -77 45 -37 24 -94 56 -127 70 -145 64 -164 73 -284 139 -36 20
-103 56 -150 81 -133 71 -242 138 -320 195 -56 42 -80 69 -112 124 -23 39 -65
96 -93 126 -29 30 -68 80 -89 110 -20 30 -60 85 -89 122 -29 37 -72 103 -95
147 -46 86 -113 160 -169 186 -50 24 -73 51 -73 84 0 29 -29 91 -42 91 -10 0
2 58 17 90 7 14 16 45 20 70 3 25 15 64 26 87 26 57 24 153 -3 153 -6 0 -7 -7
-4 -16 3 -8 2 -12 -4 -9 -6 3 -10 1 -10 -4 0 -6 5 -11 12 -11 6 0 8 -3 4 -7
-10 -10 -36 26 -35 46 0 12 3 10 9 -4 6 -14 9 -16 9 -4 1 8 -6 24 -14 35 -15
18 -15 18 -8 0 4 -13 3 -17 -5 -12 -7 4 -8 -2 -2 -24 6 -20 5 -32 -3 -37 -12
-8 -15 -9 -39 -12 -7 -2 -4 -6 7 -11 17 -7 15 -9 -12 -9 -23 -1 -33 -7 -38
-21 -4 -11 -11 -17 -17 -14 -7 5 -9 1 -5 -9 4 -10 2 -14 -6 -11 -8 3 -13 -6
-15 -21 -1 -17 2 -24 9 -19 6 3 4 -5 -5 -18 -9 -14 -13 -28 -9 -33 5 -4 2 -5
-5 -1 -9 5 -9 13 -2 26 7 13 7 21 -2 26 -7 4 -10 4 -6 -1 9 -10 -9 -45 -23
-45 -6 0 -7 6 -2 13 11 18 13 38 2 31 -5 -3 -7 -9 -4 -14 3 -4 -2 -13 -10 -20
-8 -7 -12 -16 -9 -21 8 -14 -30 -11 -45 4 -11 10 -13 10 -7 0 5 -9 0 -13 -13
-13 -12 0 -21 5 -21 11 0 6 -7 3 -16 -5 -8 -9 -22 -16 -29 -16 -8 0 -19 -9
-25 -20 -6 -11 -15 -18 -21 -15 -5 4 -9 1 -9 -4 0 -6 -6 -10 -12 -8 -7 1 -12
-4 -11 -10 2 -7 -1 -13 -6 -13 -5 0 -11 6 -14 13 -3 6 -4 -3 -3 -22 1 -19 8
-37 14 -39 9 -3 9 -9 1 -24 -8 -15 -8 -19 0 -14 12 8 15 -7 4 -18 -8 -8 -9
-13 -12 -42 0 -9 -6 -12 -13 -8 -7 4 -8 3 -4 -4 4 -7 2 -20 -3 -29 -8 -13 -10
-14 -11 -4 0 32 -20 -6 -23 -46 -3 -29 -12 -49 -32 -67 -15 -14 -25 -26 -21
-26 13 0 -24 -60 -44 -70 -11 -6 -20 -16 -20 -22 0 -6 -27 -37 -60 -68 -33
-31 -57 -60 -52 -65 4 -4 -3 -2 -15 4 -16 8 -23 8 -23 1 0 -6 -4 -9 -9 -6 -4
3 -17 -1 -27 -9 -20 -15 -106 -19 -139 -6 -12 5 -26 4 -34 -3 -12 -9 -13 -8
-6 4 6 11 3 10 -11 -2 -18 -16 -22 -16 -41 -3 -24 17 -151 24 -161 9 -15 -21
-59 -13 -92 16 -19 17 -35 30 -36 30 -1 0 -10 -8 -20 -17 -9 -9 -33 -17 -55
-18 -21 -1 -47 -9 -57 -18 -10 -9 -28 -17 -39 -17 -12 0 -24 -6 -26 -12 -4
-10 -6 -10 -6 0 -1 7 -6 10 -13 6 -20 -12 -80 -5 -107 13 -14 9 -38 18 -52 20
-39 4 -114 49 -129 78 -7 14 -16 25 -20 25 -14 0 -70 54 -70 67 0 7 -6 16 -14
19 -8 3 -13 13 -11 22 1 9 -11 31 -27 49 -17 18 -27 36 -23 43 4 6 -4 23 -16
38 -13 14 -16 21 -7 14 14 -12 16 -10 11 10 -3 13 -12 30 -20 39 -12 14 -10
21 19 50 34 35 38 46 25 66 -4 6 -3 14 2 18 6 3 7 13 4 23 -3 9 -3 14 1 10 4
-3 20 7 35 24 23 25 33 30 76 30 27 0 53 5 57 11 3 5 34 11 68 12 56 2 63 0
73 -22 13 -29 1 -43 -16 -18 -13 17 -14 17 -20 1 -4 -10 -11 -15 -16 -12 -26
16 15 -116 46 -148 11 -12 19 -28 18 -37 -2 -11 15 -26 51 -44 30 -15 57 -32
60 -36 3 -5 31 -9 62 -9 32 0 82 -7 112 -16 68 -20 83 -20 245 0 140 17 181
32 232 84 17 19 40 35 50 36 12 2 18 12 19 32 1 43 25 102 44 107 9 2 16 17
18 36 1 18 9 39 17 47 14 15 101 20 107 6 5 -12 109 -62 129 -62 13 0 17 -6
13 -24 -2 -14 0 -28 6 -31 9 -6 15 43 11 88 -1 9 3 17 9 17 6 0 8 5 4 12 -4 6
-10 48 -15 92 -8 95 -22 129 -58 147 -29 14 -101 19 -101 6 0 -5 -5 -5 -11 -1
-19 11 -89 11 -89 0 0 -22 -42 -37 -96 -34 -30 2 -54 6 -54 10 0 5 -15 8 -33
8 -18 0 -37 4 -43 9 -5 6 -25 13 -44 16 -19 3 -51 9 -70 13 -42 9 -90 4 -90
-9 0 -5 -7 -9 -15 -9 -9 0 -12 6 -9 18 5 16 5 16 -9 0 -8 -10 -24 -18 -36 -18
-12 0 -19 -4 -16 -10 12 -20 -76 -11 -107 11 -16 12 -32 18 -35 15 -3 -3 -11
-2 -17 3 -6 5 -18 6 -26 1z m1430 -94 c0 -2 -8 -10 -17 -17 -16 -13 -17 -12
-4 4 13 16 21 21 21 13z m-899 -93 c7 -7 18 -13 23 -13 6 0 4 5 -4 10 -9 6
-10 10 -3 10 6 0 15 -5 18 -10 4 -6 16 -8 28 -4 20 6 20 6 4 -10 -9 -10 -15
-22 -12 -27 4 -5 -1 -9 -10 -9 -10 0 -13 -5 -9 -12 4 -6 3 -9 -2 -6 -10 6 -76
-27 -69 -34 3 -3 -2 -5 -10 -5 -8 0 -11 5 -8 11 4 5 -8 0 -26 -13 -17 -13 -37
-24 -44 -25 -7 -1 -18 -5 -26 -10 -16 -10 -102 -19 -179 -18 -28 0 -50 -4 -47
-8 3 -5 -3 -8 -14 -7 -11 0 -18 4 -15 8 2 4 -15 8 -38 8 -24 0 -54 3 -68 6
-14 3 -41 8 -60 11 -19 4 -42 12 -50 20 -9 7 -35 16 -59 20 -42 7 -44 6 -39
-14 4 -16 2 -22 -9 -22 -9 0 -13 6 -10 15 7 17 -17 68 -26 58 -4 -3 -7 1 -7
11 0 9 12 28 28 41 23 21 37 24 100 24 41 -1 75 1 77 3 2 1 127 3 279 3 207 0
278 -3 287 -12z m729 -85 c0 -4 -6 -8 -14 -8 -8 0 -17 4 -20 8 -2 4 4 8 15 8
10 0 19 -4 19 -8z m-44 -33 c-1 -8 -5 -17 -8 -21 -5 -4 -4 16 1 34 3 9 9 -1 7
-13z m-1839 -477 c-3 -8 -6 -5 -6 6 -1 11 2 17 5 13 3 -3 4 -12 1 -19z m-31
-535 c24 -27 43 -52 44 -57 0 -12 -56 40 -82 77 -31 43 -9 31 38 -20z m44 -78
c5 3 7 0 5 -7 -3 -8 4 -24 15 -36 11 -12 18 -22 14 -22 -14 0 -143 137 -136
144 4 4 26 -13 49 -39 24 -25 47 -44 53 -40z m-57 -2 c26 -27 55 -58 65 -70
11 -13 22 -19 26 -16 4 4 4 0 0 -10 -5 -15 -17 -7 -68 46 -76 79 -91 97 -79
97 5 0 30 -21 56 -47z m15 -61 c32 -33 67 -62 76 -65 16 -6 22 -28 10 -39 -5
-5 -164 148 -164 158 0 14 26 -4 78 -54z m41 -87 c18 -20 30 -40 26 -43 -4 -4
-19 7 -34 23 -14 17 -45 45 -69 63 -23 19 -42 40 -42 49 0 17 67 -35 119 -92z
m-109 45 c0 -5 6 -10 14 -10 7 0 36 -23 64 -50 43 -44 52 -49 64 -36 13 12 15
7 14 -40 0 -45 3 -57 22 -70 13 -9 21 -22 18 -30 -3 -8 -2 -14 2 -14 4 0 16
-14 26 -31 11 -18 14 -29 8 -25 -6 3 -23 1 -39 -5 -28 -11 -28 -11 -5 -20 21
-8 32 -49 13 -49 -5 0 -7 -15 -4 -32 2 -18 5 -49 7 -68 3 -25 8 -35 20 -34 9
1 16 -4 16 -12 0 -16 -24 -9 -59 18 -20 15 -21 18 -5 18 16 0 16 2 -4 20 -12
12 -22 26 -23 33 -1 7 -2 26 -4 43 -1 17 -8 40 -15 50 -11 19 -11 15 5 -36 8
-25 7 -25 -13 -7 -11 10 -32 44 -47 74 -14 31 -38 71 -52 90 -14 18 -24 35
-22 38 7 6 20 -6 57 -48 17 -21 32 -33 32 -27 0 6 -22 35 -50 64 -27 29 -50
62 -50 72 0 11 -6 26 -12 33 -28 29 59 -23 95 -57 20 -20 37 -31 37 -25 0 10
-15 24 -93 90 -15 13 -27 28 -27 33 0 14 78 -40 108 -74 20 -24 24 -25 37 -12
20 19 19 32 0 16 -12 -10 -20 -6 -47 23 -18 19 -50 47 -70 62 -37 27 -48 45
-28 45 6 0 10 -4 10 -10z m1166 -158 c-6 -5 -36 23 -36 34 0 4 9 -1 20 -11 11
-10 18 -20 16 -23z m-58 -22 c7 -11 11 -20 9 -20 -2 0 -12 9 -22 20 -10 11
-14 20 -9 20 5 0 15 -9 22 -20z m-48 -30 c0 -5 -2 -10 -4 -10 -3 0 -8 5 -11
10 -3 6 -1 10 4 10 6 0 11 -4 11 -10z m-20 -62 c0 -12 -6 -9 -26 13 -19 22
-19 22 4 8 12 -8 22 -17 22 -21z m-91 -67 c7 -5 12 -13 10 -18 -2 -6 -13 -2
-23 8 -20 19 -12 26 13 10z m-541 -217 c13 -8 38 -16 55 -17 33 -3 86 -31 100
-54 4 -7 14 -13 22 -13 7 0 21 -7 30 -16 21 -22 111 -43 200 -48 39 -3 78 -8
87 -11 19 -8 48 -95 48 -146 0 -30 -34 -117 -51 -129 -4 -3 -19 -27 -34 -53
-14 -27 -33 -56 -40 -65 -20 -25 -85 -114 -128 -177 -58 -84 -69 -76 -112 81
-15 54 -31 108 -36 119 -11 25 -75 258 -83 303 -7 42 -56 145 -73 155 -7 4
-13 15 -13 22 0 8 -4 15 -8 15 -5 0 -13 10 -19 23 -9 20 -8 23 11 25 11 0 31
-6 44 -14z m210 -1142 c2 -20 -1 -32 -9 -32 -21 0 -49 32 -49 56 0 19 3 21 28
15 21 -6 28 -14 30 -39z m-203 -1373 c20 -37 4 -45 -31 -16 -18 16 -25 30 -21
40 9 23 34 11 52 -24z m-5 -109 c20 -20 26 -40 13 -40 -10 0 -53 42 -53 52 0
14 19 9 40 -12z m1080 -35 c30 -10 60 -21 65 -25 6 -4 26 -11 45 -15 19 -4 76
-20 125 -35 98 -30 214 -57 285 -65 224 -26 532 -33 680 -14 113 14 113 14
125 21 6 3 29 9 52 13 24 4 45 11 49 16 3 5 18 9 34 9 16 0 31 4 34 9 3 5 22
12 42 16 20 3 47 13 59 21 29 19 72 9 81 -18 7 -23 -12 -40 -36 -33 -17 5
-206 -40 -224 -53 -16 -13 -94 -33 -156 -43 -30 -4 -86 -12 -124 -17 -101 -15
-463 2 -616 28 -69 12 -139 23 -156 25 -17 1 -42 8 -55 15 -13 7 -44 12 -69
12 -29 -1 -40 1 -31 7 16 10 3 15 -74 27 -43 6 -46 8 -25 15 18 5 8 7 -36 8
-42 1 -66 6 -74 16 -7 8 -23 15 -36 15 -13 0 -24 5 -24 11 0 7 -7 17 -17 24
-17 13 -9 39 11 32 6 -2 36 -12 66 -22z m-1209 -5 c18 -10 27 -40 12 -40 -10
0 -43 32 -43 42 0 11 7 10 31 -2z m91 -18 c39 -45 22 -85 -23 -55 -29 20 -39
33 -39 53 0 22 44 23 62 2z m62 -8 c4 -9 4 -19 1 -22 -6 -6 -35 18 -35 29 0
16 28 10 34 -7z m-131 -80 c-2 -7 1 -15 8 -20 8 -5 10 -3 4 6 -5 8 -3 11 4 9
19 -7 18 -23 -2 -27 -17 -3 -57 23 -57 37 0 3 11 6 24 6 13 0 22 -5 19 -11z
m-3073 -239 c30 -7 71 -19 90 -26 33 -11 55 -20 160 -67 25 -11 97 -39 160
-63 180 -66 270 -116 270 -151 0 -5 5 -6 12 -2 6 4 8 3 4 -4 -9 -15 12 -65 24
-57 5 3 10 -1 10 -9 0 -9 4 -16 8 -16 5 0 7 14 4 30 -2 17 -8 30 -13 30 -6 0
-4 10 3 23 7 12 13 25 14 30 1 4 3 10 4 15 1 4 2 10 1 14 -2 13 47 40 65 36 9
-2 20 -10 24 -18 4 -8 12 -24 17 -36 15 -29 35 -132 28 -143 -3 -5 2 -14 11
-19 14 -8 12 -10 -12 -16 -25 -7 -26 -9 -11 -17 10 -6 17 -21 16 -37 l-1 -27
-12 28 c-7 15 -15 24 -19 21 -4 -4 -7 -2 -7 4 0 6 -9 13 -19 17 -11 3 -23 14
-26 25 -6 19 -34 35 -44 24 -3 -3 2 -11 12 -18 9 -7 17 -20 17 -29 0 -9 5 -19
10 -22 6 -3 10 -15 10 -26 0 -11 11 -36 25 -56 13 -20 22 -40 20 -44 -3 -3 9
-12 25 -19 17 -7 30 -16 30 -21 0 -5 5 -9 11 -9 5 0 7 5 3 12 -4 7 -3 8 4 4 6
-4 9 -12 6 -19 -2 -7 5 -22 16 -32 60 -56 100 -101 100 -112 0 -7 5 -13 10
-13 6 0 10 -7 10 -15 0 -8 5 -15 11 -15 5 0 7 -4 4 -10 -3 -5 0 -10 7 -10 9 0
9 -3 -2 -10 -13 -9 -13 -12 3 -21 19 -11 22 -79 2 -79 -7 0 -7 -3 1 -8 12 -9
13 -52 1 -52 -5 0 -7 -9 -4 -21 4 -15 3 -18 -7 -10 -24 20 7 -80 39 -129 16
-25 34 -48 39 -51 5 -4 6 -14 3 -24 -4 -9 -3 -14 3 -10 6 3 10 1 10 -4 0 -6
-9 -11 -20 -11 -18 0 -21 -6 -20 -47 1 -27 -8 -79 -19 -118 -12 -38 -19 -77
-16 -86 3 -9 -2 -22 -10 -29 -14 -11 -23 -11 -53 0 -20 7 -68 17 -107 21 -134
16 -165 22 -165 32 0 13 -140 2 -242 -20 -43 -9 -78 -20 -78 -25 0 -5 -4 -7
-9 -4 -14 9 -41 -4 -41 -19 0 -22 -42 -21 -90 1 -25 12 -56 25 -70 29 -14 4
-30 12 -37 17 -22 18 -225 40 -397 44 -134 3 -172 6 -186 19 -9 8 -24 15 -33
15 -9 0 -18 4 -22 10 -3 5 -52 45 -108 89 -226 175 -260 219 -237 309 14 55
26 72 51 72 11 0 19 4 19 9 0 5 16 5 37 1 47 -11 57 -4 32 21 -11 11 -23 18
-26 16 -2 -3 -13 3 -24 14 -10 10 -26 19 -34 19 -8 0 -36 13 -64 29 -27 16
-51 27 -54 24 -12 -12 -66 30 -83 64 -47 96 18 218 109 204 23 -3 33 26 15 47
-25 28 -29 54 -22 119 6 56 9 64 30 69 13 3 24 10 24 14 0 23 159 40 185 20 6
-4 35 -13 65 -20 30 -6 89 -21 130 -32 41 -11 91 -24 110 -28 19 -5 76 -21
125 -36 50 -14 104 -30 120 -35 144 -39 229 -80 298 -143 17 -16 33 -28 33
-25 1 2 30 -18 65 -46 146 -116 179 -135 231 -135 51 0 59 9 30 38 -10 10 -17
22 -15 28 2 5 -9 15 -24 22 -27 11 -113 88 -113 99 0 3 7 11 16 18 15 10 13
15 -14 47 -17 19 -62 50 -99 69 -37 18 -71 37 -74 42 -3 5 -10 9 -15 9 -5 0
-19 4 -32 9 -13 5 -30 9 -38 9 -8 0 -12 5 -9 10 3 6 3 10 -2 10 -4 0 -25 16
-46 36 -22 21 -44 34 -52 30 -8 -3 -15 -2 -15 3 0 5 -25 11 -55 15 -55 6 -145
43 -145 59 0 4 -4 6 -9 2 -5 -3 -16 2 -24 10 -9 8 -20 15 -25 15 -5 0 -22 18
-36 39 -34 48 -38 116 -9 155 18 26 87 54 133 55 14 0 50 -6 80 -14z m921
-558 c0 -22 0 -22 10 1 5 13 13 20 19 17 6 -4 7 -11 4 -17 -4 -7 -2 -8 5 -4
27 17 103 -103 84 -133 -16 -24 -27 -23 -63 9 -18 16 -30 30 -25 30 4 0 1 8
-7 18 -13 15 -48 93 -48 108 0 17 20 -11 21 -29z m349 -448 c0 -5 -4 -9 -10
-9 -5 0 -10 -9 -10 -20 0 -12 5 -17 13 -14 8 3 20 -2 27 -11 7 -8 19 -15 27
-15 8 0 11 -5 8 -10 -4 -6 -11 -8 -16 -5 -19 13 -8 -32 15 -57 14 -14 22 -28
19 -32 -3 -3 2 -8 11 -12 9 -3 13 -11 9 -18 -13 -20 -14 -48 -2 -62 9 -11 7
-14 -10 -14 -11 0 -21 4 -21 10 0 5 -6 7 -13 4 -15 -5 -97 91 -98 115 0 9 -2
35 -4 59 -2 32 0 42 11 42 9 0 12 5 9 10 -4 6 -12 7 -18 3 -7 -3 -3 3 7 15 19
22 19 22 -5 23 l-24 1 25 7 c28 8 50 4 50 -10z m3987 -313 c13 -1 25 -5 29 -8
3 -4 17 -3 31 3 13 5 64 9 113 9 71 0 89 -3 94 -16 10 -26 7 -53 -8 -77 -13
-20 -30 -96 -56 -252 -5 -27 -9 -81 -9 -118 -1 -43 -7 -80 -18 -100 -10 -20
-17 -59 -18 -107 -2 -44 -9 -87 -18 -105 -8 -16 -18 -54 -22 -83 -8 -59 -25
-82 -61 -82 -13 0 -24 -5 -24 -11 0 -6 -6 -9 -12 -7 -23 8 -55 -17 -123 -94
-66 -75 -84 -100 -104 -146 -6 -12 -15 -22 -21 -22 -5 0 -10 -12 -10 -28 0
-15 -10 -45 -21 -67 -12 -22 -21 -41 -20 -42 0 -2 1 -14 1 -28 0 -18 -5 -25
-20 -25 -11 0 -20 7 -20 16 0 8 -3 13 -8 11 -4 -3 -30 -1 -58 4 -69 13 -131
-13 -159 -65 -11 -20 -23 -36 -27 -36 -5 0 -8 -4 -8 -10 0 -5 -10 -20 -21 -31
-17 -17 -29 -20 -63 -15 -61 8 -85 14 -98 22 -17 11 -88 14 -88 4 0 -4 -11 -6
-25 -5 -14 2 -25 0 -25 -4 0 -4 -7 -8 -15 -9 -8 -1 -22 -3 -30 -4 -8 -1 -15
-5 -15 -9 0 -5 -6 -6 -12 -4 -7 3 -51 7 -98 9 -47 3 -112 10 -145 16 -33 7
-69 13 -81 15 -11 1 -27 6 -34 10 -8 5 -11 4 -7 -2 4 -6 -15 -8 -51 -6 -31 3
-52 1 -45 -4 9 -7 -252 -11 -267 -4 -18 8 -60 8 -60 0 0 -6 -6 -6 -18 0 -15 8
-122 15 -396 26 -44 1 -62 7 -72 20 -14 18 -14 18 -15 -1 -1 -10 -6 -2 -13 20
-21 68 -2 389 30 500 7 27 12 52 9 55 -2 4 1 25 6 47 6 21 19 88 30 149 25
143 50 229 85 296 7 14 11 29 7 32 -13 14 59 29 220 48 93 10 173 21 177 24
22 13 219 27 390 26 193 -1 252 6 340 35 86 30 110 41 103 47 -3 4 3 7 15 7
11 0 24 5 27 11 4 6 13 8 19 6 7 -3 32 3 56 14 23 10 49 19 57 19 18 0 158 38
193 52 55 23 66 27 90 33 14 4 39 13 55 21 73 32 158 37 362 20z"/>
<path d="M4880 6327 c0 -10 103 -108 108 -103 3 3 0 6 -6 6 -7 0 -12 6 -12 14
0 7 -18 30 -40 50 -36 33 -50 42 -50 33z"/>
<path d="M5050 6090 c0 -5 7 -10 15 -10 8 0 15 5 15 10 0 6 -7 10 -15 10 -8 0
-15 -4 -15 -10z"/>
<path d="M1556 2231 c-4 -6 -3 -11 3 -11 5 0 49 -18 98 -41 48 -22 104 -47
123 -55 19 -9 44 -19 55 -24 11 -5 32 -11 48 -14 34 -8 36 11 2 24 -14 5 -25
15 -25 21 0 7 -3 9 -6 6 -4 -3 -15 0 -26 7 -11 8 -28 12 -39 9 -10 -3 -19 -1
-19 5 0 5 -12 15 -27 21 -16 6 -42 20 -59 30 -39 24 -119 37 -128 22z"/>
<path d="M2170 1951 c19 -16 37 -28 39 -26 6 6 -48 55 -61 55 -7 0 3 -13 22
-29z"/>
<path d="M2245 1890 c3 -5 8 -10 11 -10 2 0 4 5 4 10 0 6 -5 10 -11 10 -5 0
-7 -4 -4 -10z"/>
<path d="M1995 1631 c-3 -5 -1 -12 5 -16 5 -3 10 1 10 9 0 18 -6 21 -15 7z"/>
<path d="M2020 1610 c0 -19 3 -21 12 -12 9 9 9 15 0 24 -9 9 -12 7 -12 -12z"/>
<path d="M3040 1612 c0 -13 -4 -20 -10 -17 -6 4 -7 11 -4 17 4 7 2 8 -5 4 -6
-4 -9 -12 -6 -17 4 -5 1 -9 -5 -9 -6 0 -8 -4 -5 -10 3 -5 2 -10 -4 -10 -5 0
-8 -10 -6 -22 7 -54 44 -111 64 -99 15 10 10 138 -7 167 -11 18 -11 18 -12 -4z"/>
<path d="M2100 1548 c55 -53 76 -59 46 -13 -9 14 -23 25 -31 25 -8 0 -15 4
-15 8 0 5 -12 14 -27 21 -21 9 -14 -1 27 -41z"/>
<path d="M7037 7940 c3 -11 11 -19 17 -17 12 4 30 -11 39 -33 3 -8 4 1 2 20
-2 27 -7 34 -20 32 -9 -2 -23 2 -30 8 -11 9 -12 7 -8 -10z"/>
<path d="M6986 7906 c5 -13 1 -23 -12 -33 -18 -13 -17 -13 6 -10 26 4 30 30 9
52 -7 7 -8 3 -3 -9z"/>
<path d="M4911 7532 c-1 -8 -6 -10 -13 -6 -10 5 -10 4 -1 -6 15 -16 28 -8 20
12 -4 11 -6 11 -6 0z"/>
<path d="M4828 7358 c5 -5 16 -8 23 -6 8 3 3 7 -10 11 -17 4 -21 3 -13 -5z"/>
</g>
</svg>
